<svg width="20" height="20" viewBox="0 0 20 20" aria-hidden="true">
    <path
        d="M8.9,0.4C4.3,0.9,0.6,4.6,0.1,9.1c-0.5,4.7,2.2,8.9,6.3,10.5C6.7,19.7,7,19.5,7,19.1v-1.6c0,0-0.4,0.1-0.9,0.1c-1.4,0-2-1.2-2.1-1.9c-0.1-0.4-0.3-0.7-0.6-1C3.1,14.6,3,14.6,3,14.5c0-0.2,0.3-0.2,0.4-0.2c0.6,0,1.1,0.7,1.3,1c0.5,0.8,1.1,1,1.4,1c0.4,0,0.7-0.1,0.9-0.2c0.1-0.7,0.4-1.4,1-1.8c-2.3-0.5-4-1.8-4-4c0-1.1,0.5-2.2,1.2-3C5.1,7.1,5,6.6,5,5.9c0-0.4,0-1,0.3-1.6c0,0,1.4,0,2.8,1.3C8.6,5.4,9.3,5.3,10,5.3s1.4,0.1,2,0.3c1.3-1.3,2.8-1.3,2.8-1.3C15,4.9,15,5.5,15,5.9c0,0.8-0.1,1.2-0.2,1.4c0.7,0.8,1.2,1.8,1.2,3c0,2.2-1.7,3.5-4,4c0.6,0.5,1,1.4,1,2.3v2.6c0,0.3,0.3,0.6,0.7,0.5c3.7-1.5,6.3-5.1,6.3-9.3C20,4.4,14.9-0.3,8.9,0.4z" />
</svg>