<svg xmlns="http://www.w3.org/2000/svg" viewBox="0 0 24 24" width="20" height="20" aria-hidden="true">
    <path
        d="M22.23 0H1.77C.792 0 0 .774 0 1.732v20.536C0 23.226.792 24 1.77 24h20.46C23.208 24 24 23.226 24 22.268V1.732C24 .774 23.208 0 22.23 0zM7.09 20.452H3.556V9h3.534v11.452zM5.322 7.527c-1.13 0-2.047-.922-2.047-2.057s.917-2.057 2.047-2.057 2.047.922 2.047 2.057-.917 2.057-2.047 2.057zM20.452 20.452h-3.536v-5.763c0-1.374-.027-3.145-1.915-3.145-1.918 0-2.211 1.497-2.211 3.044v5.864H9.728V9h3.397v1.56h.048c.473-.896 1.626-1.838 3.349-1.838 3.58 0 4.242 2.356 4.242 5.42v6.31z" />
</svg>